<?xml version="1.0" encoding="UTF-8" standalone="no"?>
<!-- Created with Inkscape (http://www.inkscape.org/) -->

<svg
   xmlns:dc="http://purl.org/dc/elements/1.1/"
   xmlns:cc="http://creativecommons.org/ns#"
   xmlns:rdf="http://www.w3.org/1999/02/22-rdf-syntax-ns#"
   xmlns:svg="http://www.w3.org/2000/svg"
   xmlns="http://www.w3.org/2000/svg"
   xmlns:sodipodi="http://sodipodi.sourceforge.net/DTD/sodipodi-0.dtd"
   xmlns:inkscape="http://www.inkscape.org/namespaces/inkscape"
   width="304"
   height="256"
   id="svg2"
   version="1.1"
   inkscape:version="0.48.3.1 r9886"
   sodipodi:docname="crosshair_z-3_normal.svg">
  <defs
     id="defs4">
    <inkscape:perspective
       sodipodi:type="inkscape:persp3d"
       inkscape:vp_x="0 : 128 : 1"
       inkscape:vp_y="0 : 1000 : 0"
       inkscape:vp_z="304 : 128 : 1"
       inkscape:persp3d-origin="152 : 85.333333 : 1"
       id="perspective4335" />
  </defs>
  <sodipodi:namedview
     id="base"
     pagecolor="#ffffff"
     bordercolor="#666666"
     borderopacity="1.0"
     inkscape:pageopacity="0.0"
     inkscape:pageshadow="2"
     inkscape:zoom="1.4142136"
     inkscape:cx="248.89494"
     inkscape:cy="181.93441"
     inkscape:document-units="px"
     inkscape:current-layer="layer1"
     showgrid="false"
     inkscape:window-width="1600"
     inkscape:window-height="873"
     inkscape:window-x="0"
     inkscape:window-y="0"
     inkscape:window-maximized="1" />
  <metadata
     id="metadata7">
    <rdf:RDF>
      <cc:Work
         rdf:about="">
        <dc:format>image/svg+xml</dc:format>
        <dc:type
           rdf:resource="http://purl.org/dc/dcmitype/StillImage" />
        <dc:title></dc:title>
      </cc:Work>
    </rdf:RDF>
  </metadata>
  <g
     inkscape:label="Layer 1"
     inkscape:groupmode="layer"
     id="layer1"
     transform="translate(0,-796.36218)">
    <path
       inkscape:connector-curvature="0"
       style="fill:#2e3436;fill-opacity:1;stroke-width:2;stroke-miterlimit:4;stroke-dasharray:none;stroke:#2e3436;stroke-opacity:1"
       d="m 128,798.36218 c -34.071692,0 -64.976698,13.5277 -87.65625,35.5 l 66.8125,66.8125 c 5.56399,-4.90206 12.84543,-7.875 20.84375,-7.875 7.99832,0 15.27976,2.97294 20.84375,7.875 l 66.8125,-66.8125 c -22.67955,-21.9723 -53.58456,-35.5 -87.65625,-35.5 z M 37.5,836.70593 C 15.527703,859.38548 2,890.29049 2,924.36218 c 0,34.07169 13.527703,64.9767 35.5,87.65622 l 66.8125,-66.81247 c -4.902064,-5.56399 -7.875,-12.84543 -7.875,-20.84375 0,-7.99832 2.972936,-15.27976 7.875,-20.84375 L 37.5,836.70593 z m 181,0 -66.8125,66.8125 c 4.90206,5.56399 7.875,12.84543 7.875,20.84375 0,7.99832 -2.97294,15.27976 -7.875,20.84375 L 218.5,1012.0184 c 21.9723,-22.67952 35.5,-53.58453 35.5,-87.65622 0,-34.07169 -13.5277,-64.9767 -35.5,-87.65625 z m -111.34375,111.34375 -66.8125,66.81252 c 22.679552,21.9723 53.584558,35.5 87.65625,35.5 34.07169,0 64.9767,-13.5277 87.65625,-35.5 l -66.8125,-66.81252 c -5.56399,4.90206 -12.84543,7.875 -20.84375,7.875 -7.99832,0 -15.27976,-2.97294 -20.84375,-7.875 z"
       id="path2985-1" />
  </g>
</svg>
