<?xml version="1.0" encoding="UTF-8" standalone="no"?>
<!-- Created with Inkscape (http://www.inkscape.org/) -->

<svg
   xmlns:dc="http://purl.org/dc/elements/1.1/"
   xmlns:cc="http://creativecommons.org/ns#"
   xmlns:rdf="http://www.w3.org/1999/02/22-rdf-syntax-ns#"
   xmlns:svg="http://www.w3.org/2000/svg"
   xmlns="http://www.w3.org/2000/svg"
   xmlns:sodipodi="http://sodipodi.sourceforge.net/DTD/sodipodi-0.dtd"
   xmlns:inkscape="http://www.inkscape.org/namespaces/inkscape"
   width="256"
   height="256"
   id="svg2"
   version="1.1"
   inkscape:version="0.48.3.1 r9886"
   sodipodi:docname="cross_hair.svg">
  <defs
     id="defs4" />
  <sodipodi:namedview
     id="base"
     pagecolor="#ffffff"
     bordercolor="#666666"
     borderopacity="1.0"
     inkscape:pageopacity="0.0"
     inkscape:pageshadow="2"
     inkscape:zoom="1.9848066"
     inkscape:cx="149.16148"
     inkscape:cy="125.20217"
     inkscape:document-units="px"
     inkscape:current-layer="layer1"
     showgrid="false"
     inkscape:window-width="1600"
     inkscape:window-height="873"
     inkscape:window-x="0"
     inkscape:window-y="0"
     inkscape:window-maximized="1"
     showguides="true"
     inkscape:guide-bbox="true" />
  <metadata
     id="metadata7">
    <rdf:RDF>
      <cc:Work
         rdf:about="">
        <dc:format>image/svg+xml</dc:format>
        <dc:type
           rdf:resource="http://purl.org/dc/dcmitype/StillImage" />
        <dc:title></dc:title>
      </cc:Work>
    </rdf:RDF>
  </metadata>
  <g
     inkscape:label="Layer 1"
     inkscape:groupmode="layer"
     id="layer1"
     transform="translate(0,-796.36218)">
    <path
       style="fill:#babdb6;stroke-width:1;stroke-miterlimit:4;stroke-dasharray:none"
       d="m 78.900273,872.43403 19.79899,19.79899 c 16.582407,-15.15253 42.019067,-15.15253 58.601477,0 l 19.79899,-19.79899 c -27.53443,-26.06126 -70.66503,-26.06126 -98.199457,0 z"
       id="path2985-4-8"
       inkscape:connector-curvature="0"
       sodipodi:nodetypes="ccccc" />
    <path
       style="fill:#888a85;stroke-width:1;stroke-miterlimit:4;stroke-dasharray:none"
       d="m 58.726167,852.25916 20.17464,20.17464 c 27.534423,-26.06125 70.665023,-26.06125 98.199443,-10e-6 l 20.17464,-20.17464 c -38.67509,-37.19297 -99.873624,-37.19296 -138.548723,10e-6 z"
       id="path2985-4"
       inkscape:connector-curvature="0"
       sodipodi:nodetypes="ccccc" />
    <path
       style="fill:#555753;stroke-width:1;stroke-miterlimit:4;stroke-dasharray:none"
       d="m 38.927965,832.45985 19.79899,19.79899 c 38.675099,-37.19297 99.873635,-37.19297 138.548735,0 l 19.79899,-19.79899 c -49.61345,-48.11849 -128.533268,-48.11848 -178.146715,0 z"
       id="path2985"
       inkscape:connector-curvature="0"
       sodipodi:nodetypes="ccccc" />
    <path
       style="fill:#babdb6;stroke-width:1;stroke-miterlimit:4;stroke-dasharray:none"
       d="m 78.900273,976.29917 19.79899,-19.79899 c 16.582407,15.15253 42.019067,15.15253 58.601477,0 l 19.79899,19.79899 c -27.53443,26.06123 -70.66503,26.06123 -98.199457,0 z"
       id="path2985-4-8-2"
       inkscape:connector-curvature="0"
       sodipodi:nodetypes="ccccc" />
    <path
       style="fill:#888a85;stroke-width:1;stroke-miterlimit:4;stroke-dasharray:none"
       d="m 58.726167,996.47404 20.17464,-20.17464 c 27.534423,26.0612 70.665023,26.0612 98.199443,10e-6 l 20.17464,20.17464 c -38.67509,37.19295 -99.873624,37.19295 -138.548723,-1e-5 z"
       id="path2985-4-5"
       inkscape:connector-curvature="0"
       sodipodi:nodetypes="ccccc" />
    <path
       style="fill:#555753;stroke-width:1;stroke-miterlimit:4;stroke-dasharray:none"
       d="m 38.927965,1016.2733 19.79899,-19.79894 c 38.675099,37.19294 99.873635,37.19294 138.548735,0 l 19.79899,19.79894 c -49.61345,48.1185 -128.533268,48.1185 -178.146715,0 z"
       id="path2985-5"
       inkscape:connector-curvature="0"
       sodipodi:nodetypes="ccccc" />
    <path
       style="fill:#babdb6;stroke-width:1;stroke-miterlimit:4;stroke-dasharray:none"
       d="m 76.06876,973.46763 19.79899,-19.79899 c -15.15253,-16.58241 -15.15253,-42.01907 0,-58.60148 L 76.06876,875.26817 c -26.06126,27.53443 -26.06126,70.66503 0,98.19946 z"
       id="path2985-4-8-21"
       inkscape:connector-curvature="0"
       sodipodi:nodetypes="ccccc" />
    <path
       style="fill:#888a85;stroke-width:1;stroke-miterlimit:4;stroke-dasharray:none"
       d="M 55.89389,993.64173 76.06853,973.46709 C 50.00728,945.93267 50.00728,902.80207 76.06852,875.26765 L 55.89388,855.09301 c -37.19297,38.67509 -37.19296,99.87362 10e-6,138.54872 z"
       id="path2985-4-9"
       inkscape:connector-curvature="0"
       sodipodi:nodetypes="ccccc" />
    <path
       style="fill:#555753;stroke-width:1;stroke-miterlimit:4;stroke-dasharray:none"
       d="m 36.09458,1013.4399 19.79899,-19.79896 c -37.19297,-38.67509 -37.19297,-99.87363 0,-138.54873 L 36.09458,835.29322 c -48.11849,49.61345 -48.11848,128.53327 0,178.14668 z"
       id="path2985-2"
       inkscape:connector-curvature="0"
       sodipodi:nodetypes="ccccc" />
    <path
       style="fill:#babdb6;stroke-width:1;stroke-miterlimit:4;stroke-dasharray:none"
       d="m 179.93387,973.46763 -19.79899,-19.79899 c 15.15253,-16.58241 15.15253,-42.01907 0,-58.60148 l 19.79899,-19.79899 c 26.06126,27.53443 26.06126,70.66503 0,98.19946 z"
       id="path2985-4-8-2-5"
       inkscape:connector-curvature="0"
       sodipodi:nodetypes="ccccc" />
    <path
       style="fill:#888a85;stroke-width:1;stroke-miterlimit:4;stroke-dasharray:none"
       d="M 200.10874,993.64173 179.9341,973.46709 c 26.06125,-27.53442 26.06125,-70.66502 1e-5,-98.19944 l 20.17464,-20.17464 c 37.19297,38.67509 37.19296,99.87362 -10e-6,138.54872 z"
       id="path2985-4-5-7"
       inkscape:connector-curvature="0"
       sodipodi:nodetypes="ccccc" />
    <path
       style="fill:#555753;stroke-width:1;stroke-miterlimit:4;stroke-dasharray:none"
       d="m 219.90805,1013.4399 -19.79899,-19.79896 c 37.19297,-38.67509 37.19297,-99.87363 0,-138.54873 l 19.79899,-19.79899 c 48.11849,49.61345 48.11848,128.53327 0,178.14668 z"
       id="path2985-5-4"
       inkscape:connector-curvature="0"
       sodipodi:nodetypes="ccccc" />
  </g>
</svg>
